HIERARCHY
ROOT Hips
{
	OFFSET	0.00	0.00	0.00
	CHANNELS 6 Xposition Yposition Zposition Zrotation Xrotation Yrotation
	JOINT LeftUpLeg
	{
		OFFSET	 0.126116	-0.014019	-0.065224
		CHANNELS 3 Zrotation Xrotation Yrotation
		JOINT LeftLeg
		{
			OFFSET	 0.000000	 0.000000	 0.569914
			CHANNELS 3 Zrotation Xrotation Yrotation
			JOINT LeftFoot
			{
				OFFSET	 0.000000	 0.000000	 0.544423
				CHANNELS 3 Zrotation Xrotation Yrotation
				JOINT LeftToeBase
				{
					OFFSET	 0.000000	 0.000000	 0.207117
					CHANNELS 3 Zrotation Xrotation Yrotation
					End Site
					{
						OFFSET	 0.000000	 0.000000	 0.207117
					}
				}
			}
		}
	}
	JOINT RightUpLeg
	{
		OFFSET	-0.124023	-0.008373	-0.065224
		CHANNELS 3 Zrotation Xrotation Yrotation
		JOINT RightLeg
		{
			OFFSET	 0.000000	 0.000000	 0.570047
			CHANNELS 3 Zrotation Xrotation Yrotation
			JOINT RightFoot
			{
				OFFSET	 0.000000	 0.000000	 0.544354
				CHANNELS 3 Zrotation Xrotation Yrotation
				JOINT RightToeBase
				{
					OFFSET	 0.000000	 0.000000	 0.207540
					CHANNELS 3 Zrotation Xrotation Yrotation
					End Site
					{
						OFFSET	 0.000000	 0.000000	 0.207540
					}
				}
			}
		}
	}
	JOINT Spine
	{
		OFFSET	 0.000184	-0.007763	 0.117403
		CHANNELS 3 Zrotation Xrotation Yrotation
		JOINT Spine1
		{
			OFFSET	 0.000000	 0.000000	 0.137269
			CHANNELS 3 Zrotation Xrotation Yrotation
			JOINT Spine2
			{
				OFFSET	 0.000000	 0.000000	 0.156879
				CHANNELS 3 Zrotation Xrotation Yrotation
				JOINT LeftShoulder
				{
					OFFSET	 0.080501	-0.002496	 0.160144
					CHANNELS 3 Zrotation Xrotation Yrotation
					JOINT LeftArm
					{
						OFFSET	 0.000000	 0.000000	 0.164363
						CHANNELS 3 Zrotation Xrotation Yrotation
						JOINT LeftForeArm
						{
							OFFSET	 0.000000	 0.000000	 0.364576
							CHANNELS 3 Zrotation Xrotation Yrotation
							JOINT LeftHand
							{
								OFFSET	 0.000000	 0.000000	 0.360812
								CHANNELS 3 Zrotation Xrotation Yrotation
								JOINT LeftHandIndex1
								{
									OFFSET	 0.000000	 0.000000	 0.086006
									CHANNELS 3 Zrotation Xrotation Yrotation
									JOINT LeftHandIndex2
									{
										OFFSET	 0.000000	 0.000000	 0.047236
										CHANNELS 3 Zrotation Xrotation Yrotation
										JOINT LeftHandIndex3
										{
											OFFSET	-0.004284	-0.000551	 0.038166
											CHANNELS 3 Zrotation Xrotation Yrotation
											End Site
											{
												OFFSET	-0.004284	-0.000551	 0.038166
											}
										}
									}
								}
							}
						}
					}
				}
				JOINT Neck
				{
					OFFSET	 0.000000	 0.000000	 0.176489
					CHANNELS 3 Zrotation Xrotation Yrotation
					JOINT Head
					{
						OFFSET	 0.000000	-0.001747	 0.077940
						CHANNELS 3 Zrotation Xrotation Yrotation
						End Site
						{
							OFFSET	 0.000000	-0.001747	 0.077940
						}
					}
				}
				JOINT RightShoulder
				{
					OFFSET	-0.080363	 0.000306	 0.159706
					CHANNELS 3 Zrotation Xrotation Yrotation
					JOINT RightArm
					{
						OFFSET	 0.000000	 0.000000	 0.164196
						CHANNELS 3 Zrotation Xrotation Yrotation
						JOINT RightForeArm
						{
							OFFSET	 0.000000	 0.000000	 0.365611
							CHANNELS 3 Zrotation Xrotation Yrotation
							JOINT RightHand
							{
								OFFSET	 0.000000	 0.000000	 0.360648
								CHANNELS 3 Zrotation Xrotation Yrotation
								JOINT RightHandIndex1
								{
									OFFSET	 0.000000	 0.000000	 0.069977
									CHANNELS 3 Zrotation Xrotation Yrotation
									JOINT RightHandIndex2
									{
										OFFSET	 0.000000	 0.000000	 0.052305
										CHANNELS 3 Zrotation Xrotation Yrotation
										JOINT RightHandIndex3
										{
											OFFSET	 0.009002	-0.000782	 0.042196
											CHANNELS 3 Zrotation Xrotation Yrotation
											End Site
											{
												OFFSET	 0.009002	-0.000782	 0.042196
											}
										}
									}
								}
							}
						}
					}
				}
			}
		}
	}
}
MOTION
Frames:    9
Frame Time: 0.03333334
 2.765588	 6.781282	-0.593061	-81.613220	-1.989633	-0.155593	 6.249960	-0.787006	-178.088400	-2.740672	-34.387890	 1.069656	 88.471240	 89.980220	-87.692860	-2.376565	 30.351990	-0.041591	 1.780097	-30.893880	 179.572200	 17.903870	-70.198650	 21.260110	-179.020400	 88.838870	-173.523000	 2.378012	 29.785640	 0.030514	 21.975070	 4.872525	 1.798616	-13.236240	-0.577662	 0.447168	-14.479220	-2.628034	-1.294446	-91.788070	 78.287050	 178.857700	 35.474350	 63.045420	-47.968570	-21.998570	 9.577838	-46.137350	-33.871490	 1.542065	-5.589735	-3.812334	 37.924440	-2.927599	-2.450526	 36.184240	 0.754587	-1.378229	 35.397820	-2.634230	-0.332097	 4.084134	-2.070927	-3.191483	-12.165710	-2.271868	 89.789470	 78.541280	 179.495900	-41.742930	 71.408200	 43.444230	 15.710740	 5.457785	 43.092970	 24.258310	 3.235315	 9.608953	 6.437017	 35.671460	-0.771858	 2.830251	 35.756010	-7.813440	-2.350882	 35.473990	 5.254307
 2.702357	 6.768278	-0.596037	-81.354310	-1.486147	-0.763361	 6.000014	 4.842602	-177.075600	-3.357113	-28.541700	 0.946577	 10.764920	 89.532280	-10.140740	-2.372619	 31.064350	-0.057517	 2.123671	-33.876240	 179.767000	 11.304200	-60.572400	 13.922690	-168.460700	 89.193510	 176.341700	 2.380388	 29.310330	 0.020058	 17.676350	 4.687007	 2.497031	-13.382810	-0.570384	 0.389063	-14.514470	-2.613679	-1.295815	-91.764340	 78.742620	 178.760200	 34.814370	 61.589320	-49.320560	-19.472720	 6.499203	-45.258980	-31.615410	 1.402261	-5.590246	-3.812334	 37.924440	-2.927599	-2.450526	 36.184240	 0.754587	-1.378229	 35.397820	-2.634230	-0.367892	 4.266667	-2.601377	-3.092719	-12.553080	-2.142244	 89.779450	 78.090140	 179.448700	-41.603730	 71.603500	 42.577170	 13.662060	 2.402414	 41.083890	 22.279840	 2.931737	 9.677797	 6.437017	 35.671460	-0.771858	 2.830251	 35.756010	-7.813440	-2.350882	 35.473990	 5.254307
 2.634139	 6.756076	-0.598430	-81.146190	-0.853431	-1.029130	 7.101512	 12.658360	-176.913800	-3.753631	-18.351380	 1.404802	 4.607570	 86.613600	-2.478203	-2.357649	 33.424900	-0.111553	 2.668288	-35.325170	 179.707900	 7.459425	-49.673420	 9.331964	-144.753100	 89.583630	 152.938300	 2.388642	 27.440550	-0.020380	 12.641000	 4.320616	 2.765069	-13.346300	-0.641139	 0.378512	-14.455810	-2.555006	-1.283133	-91.755060	 78.905820	 178.747800	 34.371590	 60.567460	-50.418140	-17.032240	 3.339523	-43.076330	-29.256890	 1.084951	-5.687829	-3.812334	 37.924440	-2.927599	-2.450526	 36.184240	 0.754587	-1.378229	 35.397820	-2.634230	-0.255620	 4.401073	-2.998900	-3.003029	-12.748030	-2.099750	 89.775790	 77.928250	 179.457000	-41.430300	 71.932510	 42.132210	 11.255220	-0.721602	 37.448880	 19.714840	 2.444619	 9.831302	 6.437017	 35.671460	-0.771858	 2.830251	 35.756010	-7.813440	-2.350882	 35.473990	 5.254307
 2.559844	 6.744379	-0.602004	-80.665950	-0.819299	-1.288217	 8.277061	 19.633940	-177.080100	-3.903740	-11.616760	 1.593791	 3.771712	 84.146390	 0.182141	-2.321119	 37.813060	-0.218482	 3.256169	-35.794790	 179.773700	 4.007048	-40.504630	 5.765524	-166.212400	 89.303110	 173.496500	 2.375747	 30.220650	 0.040139	 6.499149	 4.178223	 2.861217	-13.306150	-0.730874	 0.404786	-14.326230	-2.529821	-1.268367	-91.753780	 78.917410	 178.714100	 34.581340	 60.254630	-51.701650	-14.218990	 0.012454	-39.196130	-26.349280	 0.583462	-5.857423	-3.812334	 37.924440	-2.927599	-2.450526	 36.184240	 0.754587	-1.378229	 35.397820	-2.634230	-0.118377	 4.313086	-3.239486	-2.825936	-12.608390	-1.850161	 89.774600	 77.913590	 179.386600	-41.118610	 72.433750	 41.946030	 8.054194	-3.716831	 31.814070	 16.359690	 1.718366	 10.061200	 6.437017	 35.671460	-0.771858	 2.830251	 35.756010	-7.813440	-2.350882	 35.473990	 5.254307
 2.482555	 6.734939	-0.604557	-79.975620	-0.953214	-1.256835	 8.461040	 23.455770	-178.417200	-2.854316	-11.593120	 1.759612	 4.925316	 83.029430	-0.107769	-2.271284	 42.188560	-0.335935	 3.083884	-34.842850	 179.488800	 2.946276	-37.300170	 4.563108	 178.116800	 89.191820	-171.520100	 2.368604	 31.487150	 0.068538	 0.013976	 4.244202	 2.510200	-13.360310	-0.770902	 0.339539	-14.265650	-2.556404	-1.266254	-91.761760	 78.769520	 178.660300	 35.569470	 60.730840	-52.786720	-10.993890	-2.847622	-33.877730	-23.176300	-0.059403	-6.056750	-3.812334	 37.924440	-2.927599	-2.450526	 36.184240	 0.754587	-1.378229	 35.397820	-2.634230	-0.110828	 4.167870	-3.231082	-2.697164	-12.273210	-1.372500	 89.777790	 78.060140	 179.294100	-39.973530	 73.099340	 40.781020	 4.524912	-5.911720	 25.791650	 12.889530	 0.824741	 10.312250	 6.437017	 35.671460	-0.771858	 2.830251	 35.756010	-7.813440	-2.350882	 35.473990	 5.254307
 2.393513	 6.726138	-0.607588	-79.361210	-1.223395	-1.064746	 9.056774	 27.389440	 179.559400	-1.586623	-11.560080	 1.967425	 5.762124	 79.020420	 0.333925	-2.183600	 47.713590	-0.505819	 2.636427	-33.109240	 178.729800	 4.903910	-39.474970	 5.900339	 7.113479	 88.625990	 0.460317	 2.381104	 29.160310	 0.016776	-6.709754	 3.576385	 2.019344	-13.277590	-0.751136	 0.157603	-14.170510	-2.493587	-1.249969	-91.764950	 78.706450	 178.589500	 36.923070	 61.997810	-52.883710	-7.229958	-5.030454	-29.474760	-19.765640	-0.906048	-6.273252	-3.812334	 37.924440	-2.927599	-2.450526	 36.184240	 0.754587	-1.378229	 35.397820	-2.634230	-0.031666	 4.316777	-3.272025	-2.573444	-11.885930	-0.609707	 89.780300	 78.138530	 179.357200	-37.800970	 73.748890	 38.014210	 0.408958	-7.354070	 21.856050	 9.280455	-0.282588	 10.563910	 6.437017	 35.671460	-0.771858	 2.830251	 35.756010	-7.813440	-2.350882	 35.473990	 5.254307
 2.300266	 6.716884	-0.607803	-78.508380	-1.911020	-0.792243	 9.934734	 30.839760	 177.263100	-1.365620	-11.336910	 1.949737	 5.474863	 70.153110	 1.259814	-2.119806	 50.763150	-0.613659	 1.722807	-30.993670	 177.650100	 7.089405	-43.524000	 7.503042	 6.427832	 85.225940	 1.561714	 2.394881	 25.704550	-0.057075	-13.476250	 3.098100	 1.310718	-13.160040	-0.701392	-0.035635	-13.999740	-2.350676	-1.217328	-91.776820	 78.517110	 178.533400	 38.222330	 63.997070	-51.694890	-3.480982	-7.080179	-29.965770	-16.134050	-1.942789	-6.465701	-3.812334	 37.924440	-2.927599	-2.450526	 36.184240	 0.754587	-1.378229	 35.397820	-2.634230	 0.093924	 4.509721	-3.100792	-2.402757	-11.295490	 0.018730	 89.785740	 78.336750	 179.364200	-35.278900	 74.125920	 34.711280	-3.694317	-8.704714	 23.209580	 5.817742	-1.565700	 10.772900	 6.437017	 35.671460	-0.771858	 2.830251	 35.756010	-7.813440	-2.350882	 35.473990	 5.254307
 2.218590	 6.714083	-0.600400	-77.688760	-2.384157	-1.495893	 7.501227	 20.537400	 176.474600	-0.870652	-34.578480	 1.921616	 3.215464	 64.593960	 0.340988	-2.172297	 48.300220	-0.525665	 1.292575	-28.346570	 177.664600	 7.262072	-46.568580	 7.834752	 6.079144	 84.778270	 1.326524	 2.404962	 21.332160	-0.146537	-19.892770	 2.622325	 1.849938	-13.077270	-0.614511	 0.069805	-13.852030	-2.011820	-1.163467	-91.762650	 78.729990	 178.495200	 37.940620	 66.468670	-48.691060	-0.155036	-9.329549	-30.551770	-12.106580	-3.138493	-6.592651	-3.812334	 37.924440	-2.927599	-2.450526	 36.184240	 0.754587	-1.378229	 35.397820	-2.634230	 0.233938	 4.308472	-3.409369	-2.229207	-10.290360	 0.317273	 89.780080	 78.126950	 179.367100	-33.958180	 74.125770	 33.106200	-7.817471	-10.431570	 24.927650	 2.308951	-2.999925	 10.905670	 6.437017	 35.671460	-0.771858	 2.830251	 35.756010	-7.813440	-2.350882	 35.473990	 5.254307
 2.130154	 6.710384	-0.591756	-76.117580	-3.375063	 0.977737	 7.341175	 10.215200	 171.591300	-1.771086	-56.109300	-0.266325	 0.594171	 55.469540	 1.299422	-2.324569	 37.455010	-0.209392	-0.016386	-21.991940	 174.577200	 8.145244	-45.512330	 7.235015	 6.185375	 86.118030	 1.009302	 2.407690	 17.400100	-0.224256	-27.487820	 3.665944	-0.841505	-13.114710	-0.557505	-0.450648	-13.846890	-2.079311	-1.171172	-91.826450	 77.691020	 178.580000	 36.355070	 68.915660	-44.708210	 2.710373	-11.952080	-31.792280	-7.992692	-4.676619	-6.618781	-3.812334	 37.924440	-2.927599	-2.450526	 36.184240	 0.754587	-1.378229	 35.397820	-2.634230	 0.145674	 3.449785	-2.455477	-2.324057	-9.121885	 0.198388	 89.816880	 79.145400	 179.169800	-34.057920	 73.640090	 33.540000	-11.917780	-13.365090	 28.258620	-1.340454	-4.779321	 10.945130	 6.437017	 35.671460	-0.771858	 2.830251	 35.756010	-7.813440	-2.350882	 35.473990	 5.254307
